<svg width="79" height="29" viewBox="0 0 79 29" fill="none" xmlns="http://www.w3.org/2000/svg">
<path d="M19.681 28.416V18.816C19.681 14.208 20.833 10.272 23.137 7.008C25.441 3.744 29.025 1.728 33.889 0.959999V6.912C31.073 7.296 29.153 8.288 28.129 9.888C27.169 11.424 26.689 13.632 26.689 16.512L21.985 15.552H33.697V28.416H19.681ZM0.865 28.416V18.816C0.865 14.208 2.017 10.272 4.321 7.008C6.625 3.744 10.209 1.728 15.073 0.959999V6.912C12.257 7.296 10.337 8.288 9.313 9.888C8.353 11.424 7.873 13.632 7.873 16.512L3.169 15.552H14.881V28.416H0.865ZM64.5805 28.32V22.368C67.4605 21.984 69.3805 21.024 70.3405 19.488C71.3005 17.888 71.7805 15.648 71.7805 12.768L76.4845 13.728H64.7725V0.863995H78.7885V10.464C78.7885 15.072 77.6365 19.008 75.3325 22.272C73.0925 25.536 69.5085 27.552 64.5805 28.32ZM45.7645 28.32V22.368C48.6445 21.984 50.5645 21.024 51.5245 19.488C52.4845 17.888 52.9645 15.648 52.9645 12.768L57.6685 13.728H45.9565V0.863995H59.9725V10.464C59.9725 15.072 58.8205 19.008 56.5165 22.272C54.2765 25.536 50.6925 27.552 45.7645 28.32Z" fill="#F8333C"/>
</svg>
